#N canvas 600 106 450 300 10;
#X obj 258 114 r <PD;
#X msg 20 114 \; PD> a rather long message;
#X obj 208 18 web-server 8999 PD;
#X obj 20 218 s PD>;
#X msg 20 195 hello \$1;
#X text 12 17 the world's worst webserver ->;
#X floatatom 208 40 5 0 0 1 _connections - -, f 5;
#X text 16 83 sending to the browser;
#X text 255 81 receiving from the browser;
#X obj 258 136 list prepend set;
#X obj 258 158 list trim;
#X msg 119 176 bang;
#X obj 119 198 metro 1000;
#X obj 119 220 0;
#X obj 149 220 + 1;
#X obj 119 242 s PD>;
#X obj 20 173 tgl 15 0 empty empty empty 17 7 0 10 -262144 -1 -1 0
1;
#X msg 258 180;
#X connect 0 0 9 0;
#X connect 2 0 6 0;
#X connect 4 0 3 0;
#X connect 9 0 10 0;
#X connect 10 0 17 0;
#X connect 11 0 12 0;
#X connect 12 0 13 0;
#X connect 13 0 14 0;
#X connect 13 0 15 0;
#X connect 14 0 13 1;
#X connect 16 0 4 0;
