#N canvas 1028 614 661 300 10;
#X obj 259 141 textfile;
#X obj 173 98 until;
#X msg 211 98 rewind;
#X msg 173 28 bang;
#X obj 259 175 list prepend send;
#X obj 259 197 list trim;
#N canvas 33 58 450 414 check-request 1;
#X obj 9 10 inlet;
#X obj 9 159 list;
#X obj 123 150 t l;
#X obj 9 64 t b b;
#X obj 96 127 t a a;
#X obj 9 211 list tosymbol;
#X obj 9 313 sel GET HEAD POST;
#X obj 9 365 s \$0/send-page;
#X obj 96 105 list prepend;
#X obj 9 233 t a a;
#X obj 36 256 print sym;
#X obj 9 32 sel 32 10 13 59;
#X connect 0 0 11 0;
#X connect 1 0 5 0;
#X connect 2 0 8 1;
#X connect 3 0 1 0;
#X connect 3 1 8 1;
#X connect 4 0 1 1;
#X connect 4 1 2 0;
#X connect 5 0 9 0;
#X connect 6 0 7 0;
#X connect 6 1 7 0;
#X connect 8 0 4 0;
#X connect 9 0 6 0;
#X connect 9 1 10 0;
#X connect 11 0 3 0;
#X connect 11 1 3 0;
#X connect 11 2 3 0;
#X connect 11 3 3 0;
#X connect 11 4 8 0;
#X restore 259 275 pd check-request;
#X floatatom 364 253 5 0 0 0 - - -, f 5;
#X obj 173 8 r \$0/send-page;
#X obj 173 71 t b b;
#X obj 32 127 print send-page;
#X msg 356 85 read assets/test-response-bin.txt cr;
#X obj 173 51 delay 1000;
#X obj 356 63 loadbang;
#X obj 259 231 netreceive -b 8999;
#X connect 0 0 4 0;
#X connect 0 1 1 1;
#X connect 1 0 0 0;
#X connect 2 0 0 0;
#X connect 3 0 12 0;
#X connect 4 0 5 0;
#X connect 5 0 14 0;
#X connect 8 0 3 0;
#X connect 8 0 10 0;
#X connect 9 0 1 0;
#X connect 9 1 2 0;
#X connect 11 0 0 0;
#X connect 12 0 9 0;
#X connect 13 0 11 0;
#X connect 14 0 6 0;
#X connect 14 1 7 0;
